M48
; DRILL file {KiCad (5.1.9)-1} date 07/04/25 21:58:18
; FORMAT={-:-/ absolute / metric / decimal}
; #@! TF.CreationDate,2025-07-04T21:58:18+09:00
; #@! TF.GenerationSoftware,Kicad,Pcbnew,(5.1.9)-1
FMAT,2
METRIC
T1C0.300
T2C0.800
T3C1.000
T4C3.200
%
G90
G05
T1
X12.036Y94.791
X13.97Y76.118
X15.457Y101.85
X15.951Y35.875
X16.988Y102.684
X17.706Y126.218
X18.287Y57.545
X20.573Y31.231
X22.137Y117.721
X23.576Y128.478
X23.951Y121.203
X24.384Y62.841
X26.792Y110.711
X28.696Y121.171
X29.002Y119.077
X29.4Y115.272
X30.353Y115.732
X30.93Y119.632
X31.144Y133.413
X31.463Y103.311
X33.849Y132.037
X34.634Y132.822
X35.659Y103.105
X36.49Y102.478
X37.092Y131.107
X37.402Y131.854
X37.97Y131.173
X38.509Y133.326
X38.718Y131.784
X39.268Y131.305
X39.981Y132.422
X40.006Y131.153
X41.871Y23.911
X43.18Y107.2
X46.355Y125.934
X46.415Y28.637
X47.767Y104.094
X50.896Y95.59
X51.192Y125.783
X55.307Y115.417
X58.229Y98.483
X60.555Y38.184
X60.595Y108.956
X61.987Y110.521
X63.143Y46.951
X63.188Y49.259
X63.818Y110.386
X65.13Y63.058
X71.319Y126.755
X83.543Y45.497
T2
X5.08Y128.27
X5.08Y120.65
X5.08Y113.03
X5.08Y105.41
X5.08Y97.79
X5.08Y90.17
X5.08Y82.55
X5.08Y74.93
X5.08Y60.285
X5.08Y57.785
X7.62Y128.27
X7.62Y120.65
X7.62Y113.03
X7.62Y105.41
X7.62Y97.79
X7.62Y90.17
X7.62Y82.55
X7.62Y74.93
X8.89Y66.675
X8.89Y51.435
X10.16Y128.27
X10.16Y120.65
X10.16Y113.03
X10.16Y105.41
X10.16Y97.79
X10.16Y90.17
X10.16Y82.55
X10.16Y74.93
X10.795Y33.02
X10.795Y30.48
X10.795Y27.94
X10.795Y25.4
X10.795Y22.86
X10.795Y20.32
X10.795Y17.78
X10.795Y15.24
X10.795Y12.7
X10.795Y10.16
X10.795Y7.62
X10.795Y5.08
X11.43Y66.675
X11.43Y51.435
X12.7Y128.27
X12.7Y120.65
X12.7Y113.03
X12.7Y105.41
X12.7Y97.79
X12.7Y90.17
X12.7Y82.55
X12.7Y74.93
X13.335Y26.67
X13.335Y24.13
X13.335Y16.51
X13.335Y13.97
X13.97Y66.675
X13.97Y51.435
X15.24Y128.27
X15.24Y120.65
X15.24Y113.03
X15.24Y105.41
X15.24Y97.79
X15.24Y90.17
X15.24Y82.55
X15.24Y74.93
X16.51Y66.675
X16.51Y51.435
X17.78Y128.27
X17.78Y120.65
X17.78Y113.03
X17.78Y105.41
X17.78Y97.79
X17.78Y90.17
X17.78Y82.55
X17.78Y74.93
X19.05Y66.675
X19.05Y51.435
X20.32Y128.27
X20.32Y120.65
X20.32Y113.03
X20.32Y105.41
X20.32Y97.79
X20.32Y90.17
X20.32Y82.55
X20.32Y74.93
X21.59Y66.675
X21.59Y51.435
X22.86Y113.03
X22.86Y105.41
X24.13Y125.69
X24.13Y123.19
X24.13Y95.25
X24.13Y92.75
X24.13Y80.01
X24.13Y77.51
X24.13Y66.675
X24.13Y51.435
X25.4Y113.03
X25.4Y105.41
X26.035Y33.02
X26.035Y30.48
X26.035Y27.94
X26.035Y25.4
X26.035Y22.86
X26.035Y20.32
X26.035Y17.78
X26.035Y15.24
X26.035Y12.7
X26.035Y10.16
X26.035Y7.62
X26.035Y5.08
X26.67Y66.675
X26.67Y51.435
X27.94Y113.03
X27.94Y105.41
X29.21Y66.675
X29.21Y51.435
X31.75Y110.49
X31.75Y107.99
X31.75Y66.675
X31.75Y51.435
X34.29Y66.675
X34.29Y51.435
X36.83Y66.675
X36.83Y51.435
X38.735Y128.27
X38.735Y120.65
X38.735Y113.03
X38.735Y105.41
X38.735Y97.79
X38.735Y90.17
X39.37Y66.675
X39.37Y51.435
X41.275Y128.27
X41.275Y120.65
X41.275Y113.03
X41.275Y105.41
X41.275Y97.79
X41.275Y90.17
X41.91Y66.675
X41.91Y51.435
X43.815Y128.27
X43.815Y120.65
X43.815Y113.03
X43.815Y105.41
X43.815Y97.79
X43.815Y90.17
X44.45Y66.675
X44.45Y51.435
X46.355Y128.27
X46.355Y120.65
X46.355Y113.03
X46.355Y105.41
X46.355Y97.79
X46.355Y90.17
X46.99Y66.675
X46.99Y51.435
X48.895Y128.27
X48.895Y120.65
X48.895Y113.03
X48.895Y105.41
X48.895Y97.79
X48.895Y90.17
X49.53Y66.675
X49.53Y51.435
X51.435Y128.27
X51.435Y120.65
X51.435Y113.03
X51.435Y105.41
X51.435Y97.79
X51.435Y90.17
X52.07Y66.675
X52.07Y51.435
X53.975Y128.27
X53.975Y120.65
X53.975Y113.03
X53.975Y105.41
X53.975Y97.79
X53.975Y90.17
X54.61Y66.675
X54.61Y51.435
X57.15Y66.675
X57.15Y51.435
X57.785Y125.73
X57.785Y123.23
X57.785Y110.49
X57.785Y107.99
X57.785Y95.25
X57.785Y92.75
X63.5Y113.03
X63.5Y105.41
X63.5Y97.79
X63.5Y90.17
X63.5Y81.915
X63.5Y74.295
X66.04Y113.03
X66.04Y105.41
X66.04Y97.79
X66.04Y90.17
X66.04Y81.915
X66.04Y74.295
X66.04Y48.26
X66.04Y45.72
X66.04Y43.18
X66.04Y40.64
X66.04Y38.1
X66.04Y35.56
X66.04Y33.02
X66.04Y30.48
X66.04Y27.94
X66.04Y25.4
X66.04Y22.86
X66.04Y20.32
X66.04Y17.78
X66.04Y15.24
X68.58Y113.03
X68.58Y105.41
X68.58Y97.79
X68.58Y90.17
X68.58Y81.915
X68.58Y74.295
X71.12Y113.03
X71.12Y105.41
X71.12Y97.79
X71.12Y90.17
X71.12Y81.915
X71.12Y74.295
X72.032Y11.221
X73.66Y113.03
X73.66Y105.41
X73.66Y97.79
X73.66Y90.17
X73.66Y81.915
X73.66Y74.295
X74.532Y11.221
X75.565Y130.175
X76.2Y113.03
X76.2Y105.41
X76.2Y97.79
X76.2Y90.17
X76.2Y81.915
X76.2Y74.295
X78.065Y130.175
X78.74Y113.03
X78.74Y105.41
X78.74Y97.79
X78.74Y90.17
X78.74Y81.915
X78.74Y74.295
X81.28Y48.26
X81.28Y45.72
X81.28Y43.18
X81.28Y40.64
X81.28Y38.1
X81.28Y35.56
X81.28Y33.02
X81.28Y30.48
X81.28Y27.94
X81.28Y25.4
X81.28Y22.86
X81.28Y20.32
X81.28Y17.78
X81.28Y15.24
X82.55Y110.49
X82.55Y107.99
X82.55Y95.25
X82.55Y92.75
X82.55Y79.375
X82.55Y76.875
T3
X17.145Y139.7
X17.145Y137.16
X19.685Y139.7
X19.685Y137.16
X22.225Y139.7
X22.225Y137.16
X24.765Y139.7
X24.765Y137.16
X27.305Y139.7
X27.305Y137.16
X29.845Y139.7
X29.845Y137.16
X32.385Y139.7
X32.385Y137.16
X34.925Y139.7
X34.925Y137.16
X34.985Y29.72
X34.985Y4.32
X34.985Y1.78
X37.465Y139.7
X37.465Y137.16
X37.525Y29.72
X38.795Y37.34
X40.005Y139.7
X40.005Y137.16
X40.065Y29.72
X41.335Y37.34
X42.545Y139.7
X42.545Y137.16
X42.605Y29.72
X43.875Y37.34
X45.085Y139.7
X45.085Y137.16
X45.145Y29.72
X46.415Y37.34
X47.625Y139.7
X47.625Y137.16
X47.685Y29.72
X48.955Y37.34
X50.165Y139.7
X50.165Y137.16
X50.225Y29.72
X51.495Y37.34
X52.705Y139.7
X52.705Y137.16
X52.765Y29.72
X55.245Y139.7
X55.245Y137.16
X55.305Y29.72
X55.305Y4.32
X55.305Y1.78
X57.785Y139.7
X57.785Y137.16
X60.325Y139.7
X60.325Y137.16
X62.865Y139.7
X62.865Y137.16
X65.405Y139.7
X65.405Y137.16
X67.945Y139.7
X67.945Y137.16
X70.485Y139.7
X70.485Y137.16
X71.12Y60.325
X73.025Y139.7
X73.025Y137.16
X73.66Y60.325
X75.565Y139.7
X75.565Y137.16
X76.2Y60.325
X78.105Y139.7
X78.105Y137.16
T4
X5.0Y144.0
X5.0Y5.0
X82.0Y144.0
X82.0Y5.0
T0
M30
