G04 #@! TF.GenerationSoftware,KiCad,Pcbnew,(5.1.9)-1*
G04 #@! TF.CreationDate,2025-07-04T21:58:15+09:00*
G04 #@! TF.ProjectId,FP-1100_SD,46502d31-3130-4305-9f53-442e6b696361,rev?*
G04 #@! TF.SameCoordinates,PX53920b0PYad82f20*
G04 #@! TF.FileFunction,Soldermask,Bot*
G04 #@! TF.FilePolarity,Negative*
%FSLAX46Y46*%
G04 Gerber Fmt 4.6, Leading zero omitted, Abs format (unit mm)*
G04 Created by KiCad (PCBNEW (5.1.9)-1) date 2025-07-04 21:58:15*
%MOMM*%
%LPD*%
G01*
G04 APERTURE LIST*
%ADD10O,1.600000X2.400000*%
%ADD11R,1.600000X2.400000*%
%ADD12C,1.600000*%
%ADD13C,3.200000*%
%ADD14R,1.600000X1.600000*%
%ADD15R,1.700000X1.700000*%
%ADD16O,1.700000X1.700000*%
%ADD17O,1.600000X1.600000*%
%ADD18R,1.780000X10.000000*%
G04 APERTURE END LIST*
D10*
X53975000Y90170000D03*
X38735000Y97790000D03*
X51435000Y90170000D03*
X41275000Y97790000D03*
X48895000Y90170000D03*
X43815000Y97790000D03*
X46355000Y90170000D03*
X46355000Y97790000D03*
X43815000Y90170000D03*
X48895000Y97790000D03*
X41275000Y90170000D03*
X51435000Y97790000D03*
X38735000Y90170000D03*
D11*
X53975000Y97790000D03*
D12*
X5080000Y57785000D03*
X5080000Y60285000D03*
D11*
X57150000Y66675000D03*
D10*
X8890000Y51435000D03*
X54610000Y66675000D03*
X11430000Y51435000D03*
X52070000Y66675000D03*
X13970000Y51435000D03*
X49530000Y66675000D03*
X16510000Y51435000D03*
X46990000Y66675000D03*
X19050000Y51435000D03*
X44450000Y66675000D03*
X21590000Y51435000D03*
X41910000Y66675000D03*
X24130000Y51435000D03*
X39370000Y66675000D03*
X26670000Y51435000D03*
X36830000Y66675000D03*
X29210000Y51435000D03*
X34290000Y66675000D03*
X31750000Y51435000D03*
X31750000Y66675000D03*
X34290000Y51435000D03*
X29210000Y66675000D03*
X36830000Y51435000D03*
X26670000Y66675000D03*
X39370000Y51435000D03*
X24130000Y66675000D03*
X41910000Y51435000D03*
X21590000Y66675000D03*
X44450000Y51435000D03*
X19050000Y66675000D03*
X46990000Y51435000D03*
X16510000Y66675000D03*
X49530000Y51435000D03*
X13970000Y66675000D03*
X52070000Y51435000D03*
X11430000Y66675000D03*
X54610000Y51435000D03*
X8890000Y66675000D03*
X57150000Y51435000D03*
D12*
X74532000Y11221000D03*
X72032000Y11221000D03*
D13*
X5000000Y144000000D03*
X82000000Y144000000D03*
X82000000Y5000000D03*
X5000000Y5000000D03*
D14*
X75565000Y130175000D03*
D12*
X78065000Y130175000D03*
D15*
X55305000Y29720000D03*
D16*
X52765000Y29720000D03*
X50225000Y29720000D03*
X47685000Y29720000D03*
X45145000Y29720000D03*
X42605000Y29720000D03*
X40065000Y29720000D03*
X37525000Y29720000D03*
X34985000Y29720000D03*
X34985000Y1780000D03*
X34985000Y4320000D03*
X55305000Y1780000D03*
X55305000Y4320000D03*
D14*
X26035000Y5080000D03*
D17*
X26035000Y7620000D03*
X26035000Y10160000D03*
X10795000Y33020000D03*
X26035000Y12700000D03*
X10795000Y30480000D03*
X26035000Y15240000D03*
X10795000Y27940000D03*
X26035000Y17780000D03*
X10795000Y25400000D03*
X26035000Y20320000D03*
X10795000Y22860000D03*
X26035000Y22860000D03*
X10795000Y20320000D03*
X26035000Y25400000D03*
X10795000Y17780000D03*
X26035000Y27940000D03*
X10795000Y15240000D03*
X26035000Y30480000D03*
X10795000Y12700000D03*
X26035000Y33020000D03*
X10795000Y10160000D03*
X10795000Y7620000D03*
X10795000Y5080000D03*
X13335000Y13970000D03*
X13335000Y16510000D03*
X13335000Y24130000D03*
X13335000Y26670000D03*
D15*
X51495000Y37340000D03*
D16*
X48955000Y37340000D03*
X46415000Y37340000D03*
X43875000Y37340000D03*
X41335000Y37340000D03*
X38795000Y37340000D03*
D12*
X57785000Y123230000D03*
X57785000Y125730000D03*
X82550000Y110490000D03*
X82550000Y107990000D03*
X57785000Y107990000D03*
X57785000Y110490000D03*
X82550000Y95250000D03*
X82550000Y92750000D03*
X82550000Y76875000D03*
X82550000Y79375000D03*
X57785000Y92750000D03*
X57785000Y95250000D03*
X24130000Y95250000D03*
X24130000Y92750000D03*
X24130000Y80010000D03*
X24130000Y77510000D03*
D18*
X9525000Y154559000D03*
X12065000Y154559000D03*
X14605000Y154559000D03*
X17145000Y154559000D03*
X19685000Y154559000D03*
X22225000Y154559000D03*
X24765000Y154559000D03*
X27305000Y154559000D03*
X29845000Y154559000D03*
X32385000Y154559000D03*
X34925000Y154559000D03*
X37465000Y154559000D03*
X40005000Y154559000D03*
X42545000Y154559000D03*
X45085000Y154559000D03*
X47625000Y154559000D03*
X50165000Y154559000D03*
X52705000Y154559000D03*
X55245000Y154559000D03*
X57785000Y154559000D03*
X60325000Y154559000D03*
X62865000Y154559000D03*
X65405000Y154559000D03*
X67945000Y154559000D03*
X70485000Y154559000D03*
X73025000Y154559000D03*
X75565000Y154559000D03*
X78105000Y154559000D03*
D11*
X53975000Y128270000D03*
D10*
X38735000Y120650000D03*
X51435000Y128270000D03*
X41275000Y120650000D03*
X48895000Y128270000D03*
X43815000Y120650000D03*
X46355000Y128270000D03*
X46355000Y120650000D03*
X43815000Y128270000D03*
X48895000Y120650000D03*
X41275000Y128270000D03*
X51435000Y120650000D03*
X38735000Y128270000D03*
X53975000Y120650000D03*
X78740000Y105410000D03*
X63500000Y113030000D03*
X76200000Y105410000D03*
X66040000Y113030000D03*
X73660000Y105410000D03*
X68580000Y113030000D03*
X71120000Y105410000D03*
X71120000Y113030000D03*
X68580000Y105410000D03*
X73660000Y113030000D03*
X66040000Y105410000D03*
X76200000Y113030000D03*
X63500000Y105410000D03*
D11*
X78740000Y113030000D03*
X53975000Y113030000D03*
D10*
X38735000Y105410000D03*
X51435000Y113030000D03*
X41275000Y105410000D03*
X48895000Y113030000D03*
X43815000Y105410000D03*
X46355000Y113030000D03*
X46355000Y105410000D03*
X43815000Y113030000D03*
X48895000Y105410000D03*
X41275000Y113030000D03*
X51435000Y105410000D03*
X38735000Y113030000D03*
X53975000Y105410000D03*
D11*
X78740000Y97790000D03*
D10*
X63500000Y90170000D03*
X76200000Y97790000D03*
X66040000Y90170000D03*
X73660000Y97790000D03*
X68580000Y90170000D03*
X71120000Y97790000D03*
X71120000Y90170000D03*
X68580000Y97790000D03*
X73660000Y90170000D03*
X66040000Y97790000D03*
X76200000Y90170000D03*
X63500000Y97790000D03*
X78740000Y90170000D03*
X78740000Y74295000D03*
X63500000Y81915000D03*
X76200000Y74295000D03*
X66040000Y81915000D03*
X73660000Y74295000D03*
X68580000Y81915000D03*
X71120000Y74295000D03*
X71120000Y81915000D03*
X68580000Y74295000D03*
X73660000Y81915000D03*
X66040000Y74295000D03*
X76200000Y81915000D03*
X63500000Y74295000D03*
D11*
X78740000Y81915000D03*
X20320000Y97790000D03*
D10*
X5080000Y90170000D03*
X17780000Y97790000D03*
X7620000Y90170000D03*
X15240000Y97790000D03*
X10160000Y90170000D03*
X12700000Y97790000D03*
X12700000Y90170000D03*
X10160000Y97790000D03*
X15240000Y90170000D03*
X7620000Y97790000D03*
X17780000Y90170000D03*
X5080000Y97790000D03*
X20320000Y90170000D03*
D11*
X20320000Y82550000D03*
D10*
X5080000Y74930000D03*
X17780000Y82550000D03*
X7620000Y74930000D03*
X15240000Y82550000D03*
X10160000Y74930000D03*
X12700000Y82550000D03*
X12700000Y74930000D03*
X10160000Y82550000D03*
X15240000Y74930000D03*
X7620000Y82550000D03*
X17780000Y74930000D03*
X5080000Y82550000D03*
X20320000Y74930000D03*
D12*
X24130000Y125690000D03*
X24130000Y123190000D03*
X31750000Y107990000D03*
X31750000Y110490000D03*
D11*
X20320000Y128270000D03*
D10*
X5080000Y120650000D03*
X17780000Y128270000D03*
X7620000Y120650000D03*
X15240000Y128270000D03*
X10160000Y120650000D03*
X12700000Y128270000D03*
X12700000Y120650000D03*
X10160000Y128270000D03*
X15240000Y120650000D03*
X7620000Y128270000D03*
X17780000Y120650000D03*
X5080000Y128270000D03*
X20320000Y120650000D03*
D11*
X27940000Y113030000D03*
D10*
X5080000Y105410000D03*
X25400000Y113030000D03*
X7620000Y105410000D03*
X22860000Y113030000D03*
X10160000Y105410000D03*
X20320000Y113030000D03*
X12700000Y105410000D03*
X17780000Y113030000D03*
X15240000Y105410000D03*
X15240000Y113030000D03*
X17780000Y105410000D03*
X12700000Y113030000D03*
X20320000Y105410000D03*
X10160000Y113030000D03*
X22860000Y105410000D03*
X7620000Y113030000D03*
X25400000Y105410000D03*
X5080000Y113030000D03*
X27940000Y105410000D03*
D15*
X76200000Y60325000D03*
D16*
X73660000Y60325000D03*
X71120000Y60325000D03*
D14*
X81280000Y15240000D03*
D17*
X66040000Y48260000D03*
X81280000Y17780000D03*
X66040000Y45720000D03*
X81280000Y20320000D03*
X66040000Y43180000D03*
X81280000Y22860000D03*
X66040000Y40640000D03*
X81280000Y25400000D03*
X66040000Y38100000D03*
X81280000Y27940000D03*
X66040000Y35560000D03*
X81280000Y30480000D03*
X66040000Y33020000D03*
X81280000Y33020000D03*
X66040000Y30480000D03*
X81280000Y35560000D03*
X66040000Y27940000D03*
X81280000Y38100000D03*
X66040000Y25400000D03*
X81280000Y40640000D03*
X66040000Y22860000D03*
X81280000Y43180000D03*
X66040000Y20320000D03*
X81280000Y45720000D03*
X66040000Y17780000D03*
X81280000Y48260000D03*
X66040000Y15240000D03*
D16*
X17145000Y139700000D03*
X17145000Y137160000D03*
X19685000Y139700000D03*
X22225000Y139700000D03*
X24765000Y139700000D03*
X37465000Y139700000D03*
X40005000Y137160000D03*
X62865000Y137160000D03*
X45085000Y139700000D03*
X57785000Y139700000D03*
X47625000Y137160000D03*
X50165000Y137160000D03*
X60325000Y139700000D03*
X60325000Y137160000D03*
X27305000Y137160000D03*
X32385000Y137160000D03*
X65405000Y139700000D03*
X34925000Y137160000D03*
X50165000Y139700000D03*
X40005000Y139700000D03*
X45085000Y137160000D03*
X55245000Y139700000D03*
X37465000Y137160000D03*
X34925000Y139700000D03*
X47625000Y139700000D03*
X29845000Y139700000D03*
X29845000Y137160000D03*
X42545000Y139700000D03*
X55245000Y137160000D03*
X24765000Y137160000D03*
X57785000Y137160000D03*
X52705000Y137160000D03*
X52705000Y139700000D03*
X32385000Y139700000D03*
X19685000Y137160000D03*
X22225000Y137160000D03*
X27305000Y139700000D03*
X62865000Y139700000D03*
X42545000Y137160000D03*
X65405000Y137160000D03*
X67945000Y139700000D03*
X75565000Y137160000D03*
X70485000Y137160000D03*
X67945000Y137160000D03*
X70485000Y139700000D03*
X73025000Y139700000D03*
X73025000Y137160000D03*
X75565000Y139700000D03*
X78105000Y139700000D03*
D15*
X78105000Y137160000D03*
M02*
